# xmcd
# Track frame offsets:
# 150
# 14675
# 28372
# 43415
# 58795
# 73872
# 91887
# 112490
# 125805
# 138547
# 151255
# 168432
#
# Disc length: 2523 seconds
# Revision: 0
# Processed by: cddbd v1.5.2PL0 Copyright (c) Steve Scherf et al.
# Submitted via: VisiTrax 2.9.10.228 - For more info visit www.synapsa.com
#
DISCID=be09d90c
DTITLE=Jerry Kilgore - Loaded and Empty
DYEAR=1900
DGENRE=
TTITLE0=What's it take to get a drink in here
TTITLE1=Down on my luck
TTITLE2=Ain't got one honky tonk
TTITLE3=Loaded and empty
TTITLE4=Both be on our way
TTITLE5=Let's talk about us
TTITLE6=Shore thing
TTITLE7=Night or day
TTITLE8=American car
TTITLE9=Hag
TTITLE10=Not another goodbye
TTITLE11=Lookin' for a highway
EXTD=
EXTT0=
EXTT1=
EXTT2=
EXTT3=
EXTT4=
EXTT5=
EXTT6=
EXTT7=
EXTT8=
EXTT9=
EXTT10=
EXTT11=
PLAYORDER=
